# xmcd
#
# Track frame offsets:
# 150
# 17767
# 31530
# 47702
# 61877
# 78315
# 93497
# 110987
# 128232
# 145482
# 162000
# 177212
#
# Disc length: 2573 seconds
#
#
# Revision: 1
# Processed by: cddbd v1.5.2PL0 Copyright (c) Steve Scherf et al.
# Submitted via: FreeRIP 2.944 
#
DISCID=990a0b0c
DTITLE=Gian and Giovani - Gian and Giovani
DYEAR=1900
DGENRE=
TTITLE0=Olha amor
TTITLE1=Eu quero te amar
TTITLE2=Não da pra re esquecer
TTITLE3=É hora de recomeçar
TTITLE4=Por que será
TTITLE5=Com o outro foi embora
TTITLE6=Meu verdadeiro amor
TTITLE7=Me chama de volta
TTITLE8=Passarela do meu coração
TTITLE9=Momentos a dois
TTITLE10=Sou eu
TTITLE11=Antigo retrato
EXTD=
EXTT0=
EXTT1=
EXTT2=
EXTT3=
EXTT4=
EXTT5=
EXTT6=
EXTT7=
EXTT8=
EXTT9=
EXTT10=
EXTT11=
PLAYORDER=
